<?xml version="1.0" encoding="utf-8" standalone="no"?>
<!DOCTYPE svg PUBLIC "-//W3C//DTD SVG 1.1//EN"
  "http://www.w3.org/Graphics/SVG/1.1/DTD/svg11.dtd">
<svg xmlns:xlink="http://www.w3.org/1999/xlink" width="720pt" height="216pt" viewBox="0 0 720 216" xmlns="http://www.w3.org/2000/svg" version="1.1">
 <metadata>
  <rdf:RDF xmlns:dc="http://purl.org/dc/elements/1.1/" xmlns:cc="http://creativecommons.org/ns#" xmlns:rdf="http://www.w3.org/1999/02/22-rdf-syntax-ns#">
   <cc:Work>
    <dc:type rdf:resource="http://purl.org/dc/dcmitype/StillImage"/>
    <dc:date>2026-01-20T14:32:54.874473</dc:date>
    <dc:format>image/svg+xml</dc:format>
    <dc:creator>
     <cc:Agent>
      <dc:title>Matplotlib v3.10.6, https://matplotlib.org/</dc:title>
     </cc:Agent>
    </dc:creator>
   </cc:Work>
  </rdf:RDF>
 </metadata>
 <defs>
  <style type="text/css">*{stroke-linejoin: round; stroke-linecap: butt}</style>
 </defs>
 <g id="figure_1">
  <g id="patch_1">
   <path d="M 0 216 
L 720 216 
L 720 0 
L 0 0 
z
" style="fill: #ffffff"/>
  </g>
  <g id="axes_1">
   <g id="patch_2">
    <path d="M 90 192.24 
L 254.117647 192.24 
L 254.117647 25.92 
L 90 25.92 
z
" style="fill: #ffffff"/>
   </g>
   <g id="patch_3">
    <path d="M 136.748663 192.24 
L 142.716578 192.24 
L 142.716578 25.92 
L 136.748663 25.92 
z
" clip-path="url(#p2a4c3b8592)" style="fill: #ffc0cb; opacity: 0.3; stroke: #ffc0cb; stroke-linejoin: miter"/>
   </g>
   <g id="patch_4">
    <path d="M 236.213904 192.24 
L 242.181818 192.24 
L 242.181818 25.92 
L 236.213904 25.92 
z
" clip-path="url(#p2a4c3b8592)" style="fill: #800080; opacity: 0.3; stroke: #800080; stroke-linejoin: miter"/>
   </g>
   <g id="matplotlib.axis_1">
    <g id="xtick_1">
     <g id="line2d_1">
      <path d="M 90 192.24 
L 90 25.92 
" clip-path="url(#p2a4c3b8592)" style="fill: none; stroke: #b0b0b0; stroke-width: 0.8; stroke-linecap: square"/>
     </g>
     <g id="line2d_2">
      <defs>
       <path id="m2d332fe193" d="M 0 0 
L 0 3.5 
" style="stroke: #000000; stroke-width: 0.8"/>
      </defs>
      <g>
       <use xlink:href="#m2d332fe193" x="90" y="192.24" style="stroke: #000000; stroke-width: 0.8"/>
      </g>
     </g>
     <g id="text_1">
      <!-- 0.000 -->
      <g transform="translate(75.685937 206.838437) scale(0.1 -0.1)">
       <defs>
        <path id="DejaVuSans-30" d="M 2034 4250 
Q 1547 4250 1301 3770 
Q 1056 3291 1056 2328 
Q 1056 1369 1301 889 
Q 1547 409 2034 409 
Q 2525 409 2770 889 
Q 3016 1369 3016 2328 
Q 3016 3291 2770 3770 
Q 2525 4250 2034 4250 
z
M 2034 4750 
Q 2819 4750 3233 4129 
Q 3647 3509 3647 2328 
Q 3647 1150 3233 529 
Q 2819 -91 2034 -91 
Q 1250 -91 836 529 
Q 422 1150 422 2328 
Q 422 3509 836 4129 
Q 1250 4750 2034 4750 
z
" transform="scale(0.015625)"/>
        <path id="DejaVuSans-2e" d="M 684 794 
L 1344 794 
L 1344 0 
L 684 0 
L 684 794 
z
" transform="scale(0.015625)"/>
       </defs>
       <use xlink:href="#DejaVuSans-30"/>
       <use xlink:href="#DejaVuSans-2e" transform="translate(63.623047 0)"/>
       <use xlink:href="#DejaVuSans-30" transform="translate(95.410156 0)"/>
       <use xlink:href="#DejaVuSans-30" transform="translate(159.033203 0)"/>
       <use xlink:href="#DejaVuSans-30" transform="translate(222.65625 0)"/>
      </g>
     </g>
    </g>
    <g id="xtick_2">
     <g id="line2d_3">
      <path d="M 139.73262 192.24 
L 139.73262 25.92 
" clip-path="url(#p2a4c3b8592)" style="fill: none; stroke: #b0b0b0; stroke-width: 0.8; stroke-linecap: square"/>
     </g>
     <g id="line2d_4">
      <g>
       <use xlink:href="#m2d332fe193" x="139.73262" y="192.24" style="stroke: #000000; stroke-width: 0.8"/>
      </g>
     </g>
     <g id="text_2">
      <!-- 0.333 -->
      <g transform="translate(125.418558 206.838437) scale(0.1 -0.1)">
       <defs>
        <path id="DejaVuSans-33" d="M 2597 2516 
Q 3050 2419 3304 2112 
Q 3559 1806 3559 1356 
Q 3559 666 3084 287 
Q 2609 -91 1734 -91 
Q 1441 -91 1130 -33 
Q 819 25 488 141 
L 488 750 
Q 750 597 1062 519 
Q 1375 441 1716 441 
Q 2309 441 2620 675 
Q 2931 909 2931 1356 
Q 2931 1769 2642 2001 
Q 2353 2234 1838 2234 
L 1294 2234 
L 1294 2753 
L 1863 2753 
Q 2328 2753 2575 2939 
Q 2822 3125 2822 3475 
Q 2822 3834 2567 4026 
Q 2313 4219 1838 4219 
Q 1578 4219 1281 4162 
Q 984 4106 628 3988 
L 628 4550 
Q 988 4650 1302 4700 
Q 1616 4750 1894 4750 
Q 2613 4750 3031 4423 
Q 3450 4097 3450 3541 
Q 3450 3153 3228 2886 
Q 3006 2619 2597 2516 
z
" transform="scale(0.015625)"/>
       </defs>
       <use xlink:href="#DejaVuSans-30"/>
       <use xlink:href="#DejaVuSans-2e" transform="translate(63.623047 0)"/>
       <use xlink:href="#DejaVuSans-33" transform="translate(95.410156 0)"/>
       <use xlink:href="#DejaVuSans-33" transform="translate(159.033203 0)"/>
       <use xlink:href="#DejaVuSans-33" transform="translate(222.65625 0)"/>
      </g>
     </g>
    </g>
    <g id="xtick_3">
     <g id="line2d_5">
      <path d="M 189.465241 192.24 
L 189.465241 25.92 
" clip-path="url(#p2a4c3b8592)" style="fill: none; stroke: #b0b0b0; stroke-width: 0.8; stroke-linecap: square"/>
     </g>
     <g id="line2d_6">
      <g>
       <use xlink:href="#m2d332fe193" x="189.465241" y="192.24" style="stroke: #000000; stroke-width: 0.8"/>
      </g>
     </g>
     <g id="text_3">
      <!-- 0.667 -->
      <g transform="translate(175.151178 206.838437) scale(0.1 -0.1)">
       <defs>
        <path id="DejaVuSans-36" d="M 2113 2584 
Q 1688 2584 1439 2293 
Q 1191 2003 1191 1497 
Q 1191 994 1439 701 
Q 1688 409 2113 409 
Q 2538 409 2786 701 
Q 3034 994 3034 1497 
Q 3034 2003 2786 2293 
Q 2538 2584 2113 2584 
z
M 3366 4563 
L 3366 3988 
Q 3128 4100 2886 4159 
Q 2644 4219 2406 4219 
Q 1781 4219 1451 3797 
Q 1122 3375 1075 2522 
Q 1259 2794 1537 2939 
Q 1816 3084 2150 3084 
Q 2853 3084 3261 2657 
Q 3669 2231 3669 1497 
Q 3669 778 3244 343 
Q 2819 -91 2113 -91 
Q 1303 -91 875 529 
Q 447 1150 447 2328 
Q 447 3434 972 4092 
Q 1497 4750 2381 4750 
Q 2619 4750 2861 4703 
Q 3103 4656 3366 4563 
z
" transform="scale(0.015625)"/>
        <path id="DejaVuSans-37" d="M 525 4666 
L 3525 4666 
L 3525 4397 
L 1831 0 
L 1172 0 
L 2766 4134 
L 525 4134 
L 525 4666 
z
" transform="scale(0.015625)"/>
       </defs>
       <use xlink:href="#DejaVuSans-30"/>
       <use xlink:href="#DejaVuSans-2e" transform="translate(63.623047 0)"/>
       <use xlink:href="#DejaVuSans-36" transform="translate(95.410156 0)"/>
       <use xlink:href="#DejaVuSans-36" transform="translate(159.033203 0)"/>
       <use xlink:href="#DejaVuSans-37" transform="translate(222.65625 0)"/>
      </g>
     </g>
    </g>
    <g id="xtick_4">
     <g id="line2d_7">
      <path d="M 239.197861 192.24 
L 239.197861 25.92 
" clip-path="url(#p2a4c3b8592)" style="fill: none; stroke: #b0b0b0; stroke-width: 0.8; stroke-linecap: square"/>
     </g>
     <g id="line2d_8">
      <g>
       <use xlink:href="#m2d332fe193" x="239.197861" y="192.24" style="stroke: #000000; stroke-width: 0.8"/>
      </g>
     </g>
     <g id="text_4">
      <!-- 1.000 -->
      <g transform="translate(224.883798 206.838437) scale(0.1 -0.1)">
       <defs>
        <path id="DejaVuSans-31" d="M 794 531 
L 1825 531 
L 1825 4091 
L 703 3866 
L 703 4441 
L 1819 4666 
L 2450 4666 
L 2450 531 
L 3481 531 
L 3481 0 
L 794 0 
L 794 531 
z
" transform="scale(0.015625)"/>
       </defs>
       <use xlink:href="#DejaVuSans-31"/>
       <use xlink:href="#DejaVuSans-2e" transform="translate(63.623047 0)"/>
       <use xlink:href="#DejaVuSans-30" transform="translate(95.410156 0)"/>
       <use xlink:href="#DejaVuSans-30" transform="translate(159.033203 0)"/>
       <use xlink:href="#DejaVuSans-30" transform="translate(222.65625 0)"/>
      </g>
     </g>
    </g>
   </g>
   <g id="matplotlib.axis_2">
    <g id="ytick_1">
     <g id="line2d_9">
      <path d="M 90 184.68 
L 254.117647 184.68 
" clip-path="url(#p2a4c3b8592)" style="fill: none; stroke: #b0b0b0; stroke-width: 0.8; stroke-linecap: square"/>
     </g>
     <g id="line2d_10">
      <defs>
       <path id="m5874291e0c" d="M 0 0 
L -3.5 0 
" style="stroke: #000000; stroke-width: 0.8"/>
      </defs>
      <g>
       <use xlink:href="#m5874291e0c" x="90" y="184.68" style="stroke: #000000; stroke-width: 0.8"/>
      </g>
     </g>
     <g id="text_5">
      <!-- 0 -->
      <g transform="translate(76.6375 188.479219) scale(0.1 -0.1)">
       <use xlink:href="#DejaVuSans-30"/>
      </g>
     </g>
    </g>
    <g id="ytick_2">
     <g id="line2d_11">
      <path d="M 90 134.28 
L 254.117647 134.28 
" clip-path="url(#p2a4c3b8592)" style="fill: none; stroke: #b0b0b0; stroke-width: 0.8; stroke-linecap: square"/>
     </g>
     <g id="line2d_12">
      <g>
       <use xlink:href="#m5874291e0c" x="90" y="134.28" style="stroke: #000000; stroke-width: 0.8"/>
      </g>
     </g>
     <g id="text_6">
      <!-- 1 -->
      <g transform="translate(76.6375 138.079219) scale(0.1 -0.1)">
       <use xlink:href="#DejaVuSans-31"/>
      </g>
     </g>
    </g>
    <g id="ytick_3">
     <g id="line2d_13">
      <path d="M 90 83.88 
L 254.117647 83.88 
" clip-path="url(#p2a4c3b8592)" style="fill: none; stroke: #b0b0b0; stroke-width: 0.8; stroke-linecap: square"/>
     </g>
     <g id="line2d_14">
      <g>
       <use xlink:href="#m5874291e0c" x="90" y="83.88" style="stroke: #000000; stroke-width: 0.8"/>
      </g>
     </g>
     <g id="text_7">
      <!-- 2 -->
      <g transform="translate(76.6375 87.679219) scale(0.1 -0.1)">
       <defs>
        <path id="DejaVuSans-32" d="M 1228 531 
L 3431 531 
L 3431 0 
L 469 0 
L 469 531 
Q 828 903 1448 1529 
Q 2069 2156 2228 2338 
Q 2531 2678 2651 2914 
Q 2772 3150 2772 3378 
Q 2772 3750 2511 3984 
Q 2250 4219 1831 4219 
Q 1534 4219 1204 4116 
Q 875 4013 500 3803 
L 500 4441 
Q 881 4594 1212 4672 
Q 1544 4750 1819 4750 
Q 2544 4750 2975 4387 
Q 3406 4025 3406 3419 
Q 3406 3131 3298 2873 
Q 3191 2616 2906 2266 
Q 2828 2175 2409 1742 
Q 1991 1309 1228 531 
z
" transform="scale(0.015625)"/>
       </defs>
       <use xlink:href="#DejaVuSans-32"/>
      </g>
     </g>
    </g>
   </g>
   <g id="line2d_15">
    <path d="M 90 83.88 
L 98.653476 83.581523 
L 100.742246 83.502549 
L 102.383422 83.59108 
L 103.875401 83.763186 
L 104.322995 83.747245 
L 105.36738 83.464158 
L 106.262567 83.103336 
L 108.202139 83.171125 
L 108.500535 83.104475 
L 109.395722 82.514467 
L 109.694118 82.709735 
L 110.589305 83.450916 
L 112.081283 83.37305 
L 114.319251 83.065214 
L 115.214439 82.731244 
L 115.960428 82.549538 
L 116.557219 82.338247 
L 117.303209 82.015614 
L 118.645989 81.997474 
L 119.093583 81.910943 
L 119.242781 81.959898 
L 119.98877 82.657133 
L 120.287166 82.821711 
L 121.033155 82.501311 
L 121.480749 82.499175 
L 122.674332 82.991058 
L 124.315508 82.615509 
L 124.763102 82.51992 
L 126.851872 82.961647 
L 128.045455 82.278275 
L 129.239037 82.761782 
L 130.283422 83.245257 
L 132.372193 83.073871 
L 132.968984 82.875685 
L 133.565775 82.779831 
L 134.162567 82.378696 
L 134.311765 82.234317 
L 134.759358 82.417459 
L 135.35615 82.901626 
L 135.505348 82.764983 
L 137.44492 78.733047 
L 137.594118 78.154368 
L 138.638503 64.514711 
L 139.832086 78.815883 
L 140.727273 79.800172 
L 141.324064 80.383273 
L 143.412834 83.017011 
L 144.009626 83.336277 
L 144.308021 82.981099 
L 145.054011 81.953589 
L 145.203209 81.93857 
L 146.247594 83.362854 
L 147.291979 82.735582 
L 150.126738 83.155809 
L 151.469519 83.132921 
L 151.767914 83.150578 
L 152.812299 83.542412 
L 153.856684 82.858566 
L 154.90107 83.378134 
L 155.796257 82.971597 
L 156.094652 82.979601 
L 156.691444 83.035056 
L 157.139037 83.017885 
L 158.631016 83.645722 
L 159.227807 83.667381 
L 160.272193 83.261844 
L 161.465775 83.463024 
L 163.106952 83.528208 
L 163.852941 83.521051 
L 164.897326 83.601056 
L 167.881283 83.213297 
L 169.224064 83.406382 
L 170.119251 83.391876 
L 171.014439 83.421316 
L 171.909626 83.234974 
L 173.401604 82.875441 
L 174.445989 83.557769 
L 175.78877 83.239415 
L 177.280749 83.377757 
L 178.325134 83.387581 
L 180.712299 83.378952 
L 182.05508 83.454822 
L 182.80107 83.188608 
L 183.099465 83.212039 
L 183.994652 83.48776 
L 184.442246 83.334336 
L 185.188235 83.023081 
L 186.531016 83.253363 
L 189.216578 82.483767 
L 189.664171 82.155764 
L 190.41016 81.531683 
L 190.559358 81.463541 
L 191.752941 83.311133 
L 192.49893 83.07946 
L 192.797326 82.993482 
L 194.140107 83.268895 
L 195.184492 83.26668 
L 197.273262 83.51233 
L 200.406417 83.530509 
L 201.450802 83.724754 
L 202.644385 83.441308 
L 203.987166 83.77677 
L 205.479144 83.639153 
L 207.567914 83.553785 
L 208.015508 83.496762 
L 209.059893 83.200294 
L 210.104278 83.744077 
L 211.297861 83.38519 
L 213.088235 83.569517 
L 213.386631 83.566061 
L 214.580214 83.3539 
L 215.624599 83.738473 
L 216.818182 83.620848 
L 217.713369 83.449395 
L 218.757754 83.608411 
L 219.951337 83.424613 
L 222.338503 83.727551 
L 223.23369 83.494357 
L 223.979679 83.159766 
L 224.278075 83.238637 
L 225.173262 83.582912 
L 229.5 83.04455 
L 231.439572 82.376194 
L 232.036364 82.187118 
L 232.782353 82.017914 
L 233.379144 81.409979 
L 233.67754 80.759631 
L 234.423529 78.425366 
L 235.318717 74.775476 
L 236.363102 69.394336 
L 237.258289 64.702968 
L 238.004278 62.487109 
L 238.153476 61.297952 
L 239.048663 37.864876 
L 239.197861 33.48 
L 240.242246 58.584871 
L 240.988235 70.650062 
L 241.435829 76.12015 
L 242.331016 80.388346 
L 242.629412 81.116494 
L 243.375401 81.969837 
L 243.972193 82.642058 
L 244.718182 83.366747 
L 245.165775 83.571724 
L 245.911765 83.667129 
L 247.105348 83.514405 
L 248.448128 83.629433 
L 249.492513 83.640853 
L 250.387701 83.640038 
L 251.432086 83.533699 
L 253.520856 83.579971 
L 254.266845 83.56086 
L 254.266845 83.56086 
" clip-path="url(#p2a4c3b8592)" style="fill: none; stroke: #1f77b4; stroke-width: 1.5; stroke-linecap: square"/>
   </g>
   <g id="line2d_16">
    <path d="M 90 134.28 
L 96.26631 134.102255 
L 97.459893 133.676903 
L 98.35508 134.029876 
L 99.250267 133.828001 
L 99.847059 133.795162 
L 102.831016 133.839854 
L 104.024599 133.6606 
L 104.919786 133.729731 
L 106.411765 133.298747 
L 108.351337 133.076345 
L 109.097326 133.181329 
L 110.440107 133.100008 
L 111.782888 133.621729 
L 112.379679 133.844287 
L 113.573262 133.705276 
L 114.468449 133.584763 
L 115.214439 133.57168 
L 116.109626 132.684203 
L 116.258824 132.59607 
L 117.303209 133.236465 
L 118.347594 133.234125 
L 118.795187 133.29983 
L 119.98877 133.174665 
L 120.734759 133.382867 
L 121.331551 133.423476 
L 122.525134 133.688639 
L 123.121925 133.27091 
L 123.718717 132.940069 
L 124.912299 133.34545 
L 125.658289 133.157167 
L 126.702674 133.18936 
L 127.299465 133.033865 
L 127.747059 133.159769 
L 128.194652 133.241388 
L 128.940642 133.356445 
L 129.686631 133.751035 
L 129.985027 133.737481 
L 130.581818 133.169832 
L 131.029412 133.031188 
L 131.327807 133.223475 
L 132.073797 133.232136 
L 132.670588 132.752955 
L 133.118182 132.692958 
L 133.565775 132.893015 
L 134.013369 132.897874 
L 134.162567 132.744047 
L 134.908556 130.258651 
L 135.206952 129.856391 
L 135.505348 129.889231 
L 135.803743 129.617431 
L 136.102139 129.040991 
L 137.295722 126.040194 
L 138.340107 116.752039 
L 138.638503 116.655013 
L 138.936898 116.831764 
L 139.235294 117.282292 
L 139.384492 117.639451 
L 140.130481 127.750549 
L 140.428877 130.637116 
L 140.876471 131.082896 
L 141.473262 131.367263 
L 141.920856 131.905071 
L 142.368449 132.092456 
L 142.666845 132.118324 
L 143.114439 132.406518 
L 143.71123 132.859924 
L 144.009626 132.836113 
L 145.501604 133.371633 
L 145.949198 133.549728 
L 146.545989 133.528805 
L 147.142781 133.42764 
L 148.485561 133.526832 
L 148.933155 133.473091 
L 149.828342 132.988078 
L 150.126738 133.105845 
L 151.021925 133.559269 
L 151.767914 133.543056 
L 153.409091 133.759301 
L 154.90107 133.305648 
L 155.199465 133.219638 
L 155.945455 133.520826 
L 156.393048 133.548481 
L 156.98984 133.62408 
L 157.437433 133.614 
L 158.33262 133.466369 
L 159.227807 133.637363 
L 160.272193 133.76075 
L 161.16738 133.781378 
L 161.764171 133.625292 
L 162.51016 133.439203 
L 163.554545 133.808701 
L 164.59893 133.313958 
L 165.792513 133.642227 
L 166.687701 133.434718 
L 167.732086 133.84462 
L 168.627273 133.653408 
L 172.506417 133.798091 
L 172.954011 133.940933 
L 174.296791 133.464075 
L 177.131551 133.663737 
L 178.175936 133.744886 
L 178.921925 134.010604 
L 179.369519 134.08023 
L 180.563102 133.697749 
L 181.159893 133.769756 
L 182.05508 133.991569 
L 182.80107 133.770043 
L 183.397861 133.617056 
L 185.188235 133.80754 
L 186.083422 133.812773 
L 187.575401 133.558676 
L 187.724599 133.587299 
L 188.32139 132.71142 
L 188.918182 131.902011 
L 189.813369 131.08538 
L 190.41016 131.903179 
L 192.200535 133.170316 
L 193.394118 133.295345 
L 194.289305 133.84744 
L 195.482888 133.848595 
L 196.228877 133.93362 
L 197.571658 133.911296 
L 199.212834 134.100967 
L 199.809626 133.899977 
L 200.555615 133.689082 
L 204.882353 133.911859 
L 205.628342 133.649254 
L 206.374332 133.825962 
L 207.120321 133.780224 
L 208.910695 133.837108 
L 211.148663 133.938455 
L 212.193048 133.802015 
L 213.237433 133.91353 
L 214.13262 133.664104 
L 215.027807 134.056322 
L 215.773797 133.868287 
L 219.652941 133.851676 
L 220.548128 134.003829 
L 222.189305 133.802245 
L 222.487701 133.749144 
L 223.681283 133.897304 
L 224.576471 133.75471 
L 225.32246 133.951132 
L 225.620856 134.032974 
L 227.262032 133.880585 
L 228.008021 133.907183 
L 229.350802 133.848305 
L 230.693583 134.016727 
L 230.991979 133.881128 
L 232.036364 133.240527 
L 232.782353 133.384395 
L 233.080749 133.382862 
L 233.67754 133.11723 
L 234.274332 132.826008 
L 235.020321 132.396303 
L 236.064706 131.216697 
L 236.810695 128.561773 
L 237.109091 127.210501 
L 237.85508 120.49893 
L 238.153476 117.308179 
L 238.899465 102.500169 
L 239.197861 95.617703 
L 240.093048 115.238046 
L 240.540642 121.80255 
L 241.286631 129.549669 
L 241.883422 131.510876 
L 242.331016 132.499909 
L 242.77861 132.905859 
L 243.375401 133.166913 
L 246.060963 133.97094 
L 246.657754 133.925144 
L 247.851337 133.561869 
L 248.448128 133.860327 
L 248.746524 134.003282 
L 249.940107 133.95633 
L 251.432086 134.100302 
L 252.028877 134.055247 
L 253.073262 133.828001 
L 254.266845 133.802572 
L 254.266845 133.802572 
" clip-path="url(#p2a4c3b8592)" style="fill: none; stroke: #ff7f0e; stroke-width: 1.5; stroke-linecap: square"/>
   </g>
   <g id="line2d_17">
    <path d="M 90 184.68 
L 98.205882 184.395665 
L 101.040642 184.304494 
L 103.129412 184.479239 
L 104.024599 184.093047 
L 105.516578 183.759289 
L 106.411765 183.893164 
L 108.202139 183.76325 
L 108.649733 183.731906 
L 109.097326 183.935152 
L 109.54492 184.212896 
L 109.843316 184.188102 
L 110.440107 184.152856 
L 111.186096 184.242549 
L 111.484492 184.142213 
L 112.528877 183.605478 
L 113.125668 183.633763 
L 114.468449 183.705204 
L 115.662032 183.984565 
L 116.109626 183.759379 
L 116.557219 183.545475 
L 117.004813 183.597463 
L 117.750802 183.98329 
L 118.049198 183.943225 
L 118.496791 183.88942 
L 119.242781 183.815711 
L 119.839572 183.764072 
L 120.287166 183.589033 
L 120.734759 183.13669 
L 121.033155 182.873851 
L 121.331551 182.966415 
L 121.779144 183.095023 
L 122.972727 183.157778 
L 123.718717 183.685644 
L 124.315508 183.780172 
L 125.509091 183.596771 
L 126.25508 183.874306 
L 126.702674 183.817436 
L 127.150267 183.970747 
L 127.747059 184.263765 
L 129.08984 183.919236 
L 129.537433 184.088943 
L 129.835829 183.985213 
L 130.283422 183.555495 
L 130.581818 183.493013 
L 130.880214 183.628093 
L 131.17861 183.753492 
L 131.775401 183.723164 
L 132.52139 183.861377 
L 133.118182 182.827099 
L 133.714973 181.418123 
L 134.162567 181.843735 
L 134.759358 182.429507 
L 134.908556 182.448692 
L 135.057754 182.339221 
L 135.505348 181.692704 
L 135.952941 181.472972 
L 136.251337 180.494984 
L 137.146524 176.841647 
L 137.892513 174.15419 
L 138.340107 170.371918 
L 138.936898 163.884082 
L 139.235294 166.982654 
L 139.832086 176.770282 
L 140.130481 179.840095 
L 140.727273 181.995287 
L 141.174866 183.062844 
L 141.324064 183.181707 
L 141.473262 183.156142 
L 142.070053 182.555275 
L 142.368449 182.379643 
L 142.517647 182.402884 
L 143.263636 183.164619 
L 144.158824 183.963368 
L 144.755615 183.98725 
L 145.8 184.285361 
L 146.396791 184.009103 
L 148.933155 183.593883 
L 149.97754 184.023153 
L 150.574332 184.320705 
L 151.320321 183.920718 
L 151.767914 183.685755 
L 152.812299 184.034052 
L 153.856684 183.780885 
L 154.751872 184.109962 
L 156.542246 184.308051 
L 157.288235 184.173487 
L 158.034225 184.411866 
L 158.33262 184.428816 
L 159.227807 184.079997 
L 159.675401 183.885522 
L 160.719786 183.52794 
L 161.913369 184.36836 
L 162.211765 184.361278 
L 163.106952 183.966534 
L 163.852941 183.844449 
L 165.195722 184.122354 
L 165.792513 184.113548 
L 166.687701 184.287106 
L 167.43369 184.259134 
L 167.881283 184.093037 
L 168.627273 183.608305 
L 169.52246 184.030481 
L 169.970053 183.922688 
L 170.417647 183.802122 
L 171.462032 184.143507 
L 172.357219 184.454113 
L 174.147594 184.322215 
L 175.042781 184.177267 
L 176.236364 184.378771 
L 177.87754 184.261942 
L 179.071123 184.341223 
L 179.518717 184.345978 
L 180.413904 184.495625 
L 181.756684 183.961475 
L 182.651872 184.250594 
L 183.547059 184.027312 
L 183.994652 184.094088 
L 184.442246 184.188233 
L 184.88984 184.071958 
L 185.337433 183.943138 
L 186.829412 184.134896 
L 187.426203 183.98591 
L 188.172193 183.886491 
L 188.918182 183.431399 
L 189.365775 182.939746 
L 190.111765 182.104846 
L 190.260963 182.066532 
L 190.559358 182.44454 
L 191.305348 183.389657 
L 191.752941 183.653366 
L 192.200535 183.716774 
L 192.797326 184.062926 
L 193.24492 184.261379 
L 193.692513 184.158303 
L 194.438503 183.854123 
L 194.886096 184.011516 
L 195.482888 184.257766 
L 195.930481 184.090667 
L 196.378075 184.138071 
L 196.974866 184.297334 
L 197.720856 184.129563 
L 198.765241 183.826107 
L 199.362032 183.902234 
L 199.958824 184.058794 
L 200.704813 184.22731 
L 201.450802 184.464995 
L 202.644385 184.420242 
L 203.539572 184.547824 
L 204.285561 184.276816 
L 204.733155 184.092833 
L 206.225134 184.348488 
L 206.821925 184.417961 
L 207.717112 184.275845 
L 208.612299 184.341221 
L 209.805882 184.439446 
L 211.297861 184.289096 
L 212.939037 184.311971 
L 213.685027 184.173655 
L 215.624599 184.419416 
L 216.22139 184.492826 
L 217.116578 184.142836 
L 217.414973 184.146604 
L 218.459358 184.546303 
L 218.757754 184.553666 
L 219.503743 184.464611 
L 222.338503 184.263868 
L 222.935294 184.401514 
L 224.725668 184.200654 
L 225.471658 184.292776 
L 226.814439 184.425283 
L 229.798396 184.173631 
L 231.58877 184.261351 
L 232.334759 184.118017 
L 233.379144 184.025163 
L 234.572727 183.84979 
L 235.915508 183.679532 
L 236.512299 183.345418 
L 236.661497 183.140461 
L 237.556684 180.040235 
L 237.85508 178.150213 
L 238.153476 173.527082 
L 238.750267 159.449858 
L 239.197861 145.482654 
L 239.94385 166.142953 
L 240.540642 177.232468 
L 241.137433 180.686161 
L 241.734225 182.944964 
L 242.331016 183.827758 
L 242.629412 184.050041 
L 243.226203 184.144879 
L 244.12139 184.183711 
L 244.86738 184.200353 
L 245.911765 184.067624 
L 246.657754 184.34836 
L 247.105348 184.329495 
L 248.149733 184.119831 
L 249.194118 184.213006 
L 250.686096 184.160385 
L 251.730481 184.191909 
L 254.266845 184.439437 
L 254.266845 184.439437 
" clip-path="url(#p2a4c3b8592)" style="fill: none; stroke: #2ca02c; stroke-width: 1.5; stroke-linecap: square"/>
   </g>
   <g id="patch_5">
    <path d="M 90 192.24 
L 90 25.92 
" style="fill: none; stroke: #000000; stroke-width: 0.8; stroke-linejoin: miter; stroke-linecap: square"/>
   </g>
   <g id="patch_6">
    <path d="M 254.117647 192.24 
L 254.117647 25.92 
" style="fill: none; stroke: #000000; stroke-width: 0.8; stroke-linejoin: miter; stroke-linecap: square"/>
   </g>
   <g id="patch_7">
    <path d="M 90 192.24 
L 254.117647 192.24 
" style="fill: none; stroke: #000000; stroke-width: 0.8; stroke-linejoin: miter; stroke-linecap: square"/>
   </g>
   <g id="patch_8">
    <path d="M 90 25.92 
L 254.117647 25.92 
" style="fill: none; stroke: #000000; stroke-width: 0.8; stroke-linejoin: miter; stroke-linecap: square"/>
   </g>
  </g>
  <g id="axes_2">
   <g id="patch_9">
    <path d="M 286.941176 192.24 
L 451.058824 192.24 
L 451.058824 25.92 
L 286.941176 25.92 
z
" style="fill: #ffffff"/>
   </g>
   <g id="patch_10">
    <path d="M 300.617647 192.24 
L 437.382353 192.24 
L 437.382353 25.92 
L 300.617647 25.92 
z
" clip-path="url(#p9237fba9ef)" style="fill: #ffc0cb; opacity: 0.3; stroke: #ffc0cb; stroke-linejoin: miter"/>
   </g>
   <g id="matplotlib.axis_3">
    <g id="xtick_5">
     <g id="line2d_18">
      <path d="M 369 192.24 
L 369 25.92 
" clip-path="url(#p9237fba9ef)" style="fill: none; stroke: #b0b0b0; stroke-width: 0.8; stroke-linecap: square"/>
     </g>
     <g id="line2d_19">
      <g>
       <use xlink:href="#m2d332fe193" x="369" y="192.24" style="stroke: #000000; stroke-width: 0.8"/>
      </g>
     </g>
     <g id="text_8">
      <!-- 0.333 -->
      <g transform="translate(354.685938 206.838437) scale(0.1 -0.1)">
       <use xlink:href="#DejaVuSans-30"/>
       <use xlink:href="#DejaVuSans-2e" transform="translate(63.623047 0)"/>
       <use xlink:href="#DejaVuSans-33" transform="translate(95.410156 0)"/>
       <use xlink:href="#DejaVuSans-33" transform="translate(159.033203 0)"/>
       <use xlink:href="#DejaVuSans-33" transform="translate(222.65625 0)"/>
      </g>
     </g>
    </g>
   </g>
   <g id="matplotlib.axis_4">
    <g id="ytick_4">
     <g id="line2d_20">
      <path d="M 286.941176 192.24 
L 451.058824 192.24 
" clip-path="url(#p9237fba9ef)" style="fill: none; stroke: #b0b0b0; stroke-width: 0.8; stroke-linecap: square"/>
     </g>
     <g id="line2d_21">
      <g>
       <use xlink:href="#m5874291e0c" x="286.941176" y="192.24" style="stroke: #000000; stroke-width: 0.8"/>
      </g>
     </g>
     <g id="text_9">
      <!-- 0 -->
      <g transform="translate(273.578676 196.039219) scale(0.1 -0.1)">
       <use xlink:href="#DejaVuSans-30"/>
      </g>
     </g>
    </g>
   </g>
   <g id="line2d_22">
    <path d="M 285.801471 176.159468 
L 289.220588 174.303561 
L 292.639706 172.725181 
L 296.058824 170.983944 
L 299.477941 168.720836 
L 302.897059 166.515382 
L 306.316176 164.367583 
L 309.735294 162.277438 
L 313.154412 160.244948 
L 316.573529 158.270111 
L 319.992647 154.45083 
L 323.411765 140.78265 
L 326.830882 127.383781 
L 330.25 114.254222 
L 333.669118 101.393975 
L 337.088235 88.803038 
L 340.507353 76.481411 
L 343.926471 64.429096 
L 347.345588 76.850517 
L 350.764706 91.077841 
L 354.183824 104.770948 
L 357.602941 117.92984 
L 361.022059 130.554515 
L 364.441176 142.644974 
L 367.860294 154.201217 
L 371.279412 158.81683 
L 374.698529 160.080037 
L 378.117647 161.271048 
L 381.536765 162.389864 
L 384.955882 163.436484 
L 388.375 164.410909 
L 391.794118 165.313138 
L 395.213235 166.123937 
L 398.632353 166.990765 
L 402.051471 168.00332 
L 405.470588 169.161603 
L 408.889706 170.465614 
L 412.308824 171.915351 
L 415.727941 173.748563 
L 419.147059 175.459604 
L 422.566176 176.648505 
L 425.985294 177.850418 
L 429.404412 179.065344 
L 432.823529 180.293282 
L 436.242647 181.534234 
L 439.661765 182.788198 
L 443.080882 184.055175 
L 446.5 184.985036 
L 449.919118 185.806792 
L 453.338235 186.544272 
" clip-path="url(#p9237fba9ef)" style="fill: none; stroke: #1f77b4; stroke-width: 1.5; stroke-linecap: square"/>
   </g>
   <g id="line2d_23">
    <path d="M 285.801471 157.662538 
L 289.220588 154.925932 
L 292.639706 151.660943 
L 296.058824 148.707648 
L 299.477941 146.066045 
L 302.897059 143.736136 
L 306.316176 141.717919 
L 309.735294 140.011396 
L 313.154412 137.857283 
L 316.573529 128.057144 
L 319.992647 116.719584 
L 323.411765 106.200437 
L 326.830882 97.027408 
L 330.25 88.987062 
L 333.669118 82.079401 
L 337.088235 76.55546 
L 340.507353 76.009405 
L 343.926471 75.915084 
L 347.345588 76.272495 
L 350.764706 77.08164 
L 354.183824 78.342517 
L 357.602941 80.055127 
L 361.022059 82.412379 
L 364.441176 97.942444 
L 367.860294 112.380801 
L 371.279412 125.72745 
L 374.698529 137.98239 
L 378.117647 149.145623 
L 381.536765 159.217148 
L 384.955882 168.196965 
L 388.375 169.404742 
L 391.794118 170.429162 
L 395.213235 171.139111 
L 398.632353 171.604427 
L 402.051471 172.072336 
L 405.470588 172.542839 
L 408.889706 173.015936 
L 412.308824 174.412101 
L 415.727941 175.621672 
L 419.147059 176.565469 
L 422.566176 177.243491 
L 425.985294 177.655738 
L 429.404412 177.80221 
L 432.823529 177.682908 
L 436.242647 177.972936 
L 439.661765 178.466381 
L 443.080882 179.100409 
L 446.5 179.87502 
L 449.919118 180.790214 
L 453.338235 181.845991 
" clip-path="url(#p9237fba9ef)" style="fill: none; stroke: #ff7f0e; stroke-width: 1.5; stroke-linecap: square"/>
   </g>
   <g id="line2d_24">
    <path d="M 285.801471 168.191985 
L 289.220588 164.618896 
L 292.639706 160.144709 
L 296.058824 155.668143 
L 299.477941 151.466076 
L 302.897059 147.538508 
L 306.316176 143.88544 
L 309.735294 140.506871 
L 313.154412 137.402802 
L 316.573529 134.573232 
L 319.992647 132.641337 
L 323.411765 128.382526 
L 326.830882 122.769652 
L 330.25 115.802717 
L 333.669118 107.481719 
L 337.088235 97.806659 
L 340.507353 86.777537 
L 343.926471 74.394352 
L 347.345588 60.657106 
L 350.764706 54.986944 
L 354.183824 62.890051 
L 357.602941 75.437517 
L 361.022059 94.596704 
L 364.441176 111.74949 
L 367.860294 126.895875 
L 371.279412 140.03586 
L 374.698529 151.169445 
L 378.117647 160.296629 
L 381.536765 164.621257 
L 384.955882 167.967408 
L 388.375 171.267287 
L 391.794118 174.520893 
L 395.213235 177.626954 
L 398.632353 179.992002 
L 402.051471 181.566772 
L 405.470588 182.351263 
L 408.889706 182.18254 
L 412.308824 180.985187 
L 415.727941 179.925115 
L 419.147059 179.002325 
L 422.566176 178.216817 
L 425.985294 177.56859 
L 429.404412 177.057645 
L 432.823529 177.211034 
L 436.242647 178.424447 
L 439.661765 179.485082 
L 443.080882 180.391957 
L 446.5 181.309758 
L 449.919118 182.238484 
L 453.338235 183.178135 
" clip-path="url(#p9237fba9ef)" style="fill: none; stroke: #2ca02c; stroke-width: 1.5; stroke-linecap: square"/>
   </g>
   <g id="patch_11">
    <path d="M 286.941176 192.24 
L 286.941176 25.92 
" style="fill: none; stroke: #000000; stroke-width: 0.8; stroke-linejoin: miter; stroke-linecap: square"/>
   </g>
   <g id="patch_12">
    <path d="M 451.058824 192.24 
L 451.058824 25.92 
" style="fill: none; stroke: #000000; stroke-width: 0.8; stroke-linejoin: miter; stroke-linecap: square"/>
   </g>
   <g id="patch_13">
    <path d="M 286.941176 192.24 
L 451.058824 192.24 
" style="fill: none; stroke: #000000; stroke-width: 0.8; stroke-linejoin: miter; stroke-linecap: square"/>
   </g>
   <g id="patch_14">
    <path d="M 286.941176 25.92 
L 451.058824 25.92 
" style="fill: none; stroke: #000000; stroke-width: 0.8; stroke-linejoin: miter; stroke-linecap: square"/>
   </g>
  </g>
  <g id="axes_3">
   <g id="patch_15">
    <path d="M 483.882353 192.24 
L 648 192.24 
L 648 25.92 
L 483.882353 25.92 
z
" style="fill: #ffffff"/>
   </g>
   <g id="patch_16">
    <path d="M 497.558824 192.24 
L 634.323529 192.24 
L 634.323529 25.92 
L 497.558824 25.92 
z
" clip-path="url(#p421cf2bd1c)" style="fill: #800080; opacity: 0.3; stroke: #800080; stroke-linejoin: miter"/>
   </g>
   <g id="patch_17">
    <path d="M -1781.852941 192.24 
L -1645.088235 192.24 
L -1645.088235 25.92 
L -1781.852941 25.92 
z
" clip-path="url(#p421cf2bd1c)" style="fill: #ffc0cb; opacity: 0.3; stroke: #ffc0cb; stroke-linejoin: miter"/>
   </g>
   <g id="matplotlib.axis_5">
    <g id="xtick_6">
     <g id="line2d_25">
      <path d="M 565.941176 192.24 
L 565.941176 25.92 
" clip-path="url(#p421cf2bd1c)" style="fill: none; stroke: #b0b0b0; stroke-width: 0.8; stroke-linecap: square"/>
     </g>
     <g id="line2d_26">
      <g>
       <use xlink:href="#m2d332fe193" x="565.941176" y="192.24" style="stroke: #000000; stroke-width: 0.8"/>
      </g>
     </g>
     <g id="text_10">
      <!-- 1.000 -->
      <g transform="translate(551.627114 206.838437) scale(0.1 -0.1)">
       <use xlink:href="#DejaVuSans-31"/>
       <use xlink:href="#DejaVuSans-2e" transform="translate(63.623047 0)"/>
       <use xlink:href="#DejaVuSans-30" transform="translate(95.410156 0)"/>
       <use xlink:href="#DejaVuSans-30" transform="translate(159.033203 0)"/>
       <use xlink:href="#DejaVuSans-30" transform="translate(222.65625 0)"/>
      </g>
     </g>
    </g>
   </g>
   <g id="matplotlib.axis_6">
    <g id="ytick_5">
     <g id="line2d_27">
      <path d="M 483.882353 192.24 
L 648 192.24 
" clip-path="url(#p421cf2bd1c)" style="fill: none; stroke: #b0b0b0; stroke-width: 0.8; stroke-linecap: square"/>
     </g>
     <g id="line2d_28">
      <g>
       <use xlink:href="#m5874291e0c" x="483.882353" y="192.24" style="stroke: #000000; stroke-width: 0.8"/>
      </g>
     </g>
     <g id="text_11">
      <!-- 0 -->
      <g transform="translate(470.519853 196.039219) scale(0.1 -0.1)">
       <use xlink:href="#DejaVuSans-30"/>
      </g>
     </g>
    </g>
   </g>
   <g id="line2d_29">
    <path d="M 480.463235 160.202205 
L 483.882353 157.825383 
L 487.301471 155.362081 
L 490.720588 152.812299 
L 494.139706 150.241529 
L 497.558824 147.614957 
L 500.977941 144.910602 
L 504.397059 142.128465 
L 507.816176 139.268545 
L 511.235294 136.330842 
L 514.654412 133.315356 
L 518.073529 131.037891 
L 521.492647 129.582371 
L 524.911765 128.129362 
L 528.330882 126.678864 
L 531.75 125.230877 
L 535.169118 123.785401 
L 538.588235 122.342436 
L 542.007353 118.457071 
L 545.426471 106.815226 
L 548.845588 94.725885 
L 552.264706 82.189047 
L 555.683824 69.204713 
L 559.102941 55.772883 
L 562.522059 41.893556 
L 565.941176 27.566733 
L 569.360294 40.534557 
L 572.779412 53.085764 
L 576.198529 65.220354 
L 579.617647 76.938328 
L 583.036765 88.239686 
L 586.455882 99.124426 
L 589.875 109.59255 
L 593.294118 118.426321 
L 596.713235 126.538577 
L 600.132353 134.340521 
L 603.551471 141.832152 
L 606.970588 149.013471 
L 610.389706 155.884477 
L 613.808824 162.445171 
L 617.227941 166.886033 
L 620.647059 169.427229 
L 624.066176 171.881652 
L 627.485294 174.249304 
L 630.904412 176.530183 
L 634.323529 178.724291 
L 637.742647 180.831627 
L 641.161765 182.520713 
L 644.580882 183.210724 
L 648 183.856608 
L 651.419118 184.458365 
" clip-path="url(#p421cf2bd1c)" style="fill: none; stroke: #1f77b4; stroke-width: 1.5; stroke-linecap: square"/>
   </g>
   <g id="line2d_30">
    <path d="M 480.463235 184.400802 
L 483.882353 183.8721 
L 487.301471 183.359804 
L 490.720588 182.863914 
L 494.139706 182.231188 
L 497.558824 180.728148 
L 500.977941 179.109178 
L 504.397059 177.374277 
L 507.816176 175.523445 
L 511.235294 173.556683 
L 514.654412 171.473991 
L 518.073529 169.141638 
L 521.492647 165.189823 
L 524.911765 161.021026 
L 528.330882 156.635246 
L 531.75 152.032485 
L 535.169118 147.212741 
L 538.588235 142.176015 
L 542.007353 136.787515 
L 545.426471 128.006486 
L 548.845588 118.777711 
L 552.264706 109.10119 
L 555.683824 98.976923 
L 559.102941 88.404909 
L 562.522059 77.385149 
L 565.941176 65.917642 
L 569.360294 77.934303 
L 572.779412 89.418038 
L 576.198529 100.368846 
L 579.617647 110.786729 
L 583.036765 120.671685 
L 586.455882 130.023715 
L 589.875 138.842818 
L 593.294118 145.371263 
L 596.713235 151.472095 
L 600.132353 157.226807 
L 603.551471 162.6354 
L 606.970588 167.697874 
L 610.389706 172.414229 
L 613.808824 176.784464 
L 617.227941 178.739836 
L 620.647059 180.359685 
L 624.066176 181.843862 
L 627.485294 183.192368 
L 630.904412 184.405204 
L 634.323529 185.482368 
L 637.742647 186.423862 
L 641.161765 187.001166 
L 644.580882 187.402581 
L 648 187.750231 
L 651.419118 188.044117 
" clip-path="url(#p421cf2bd1c)" style="fill: none; stroke: #ff7f0e; stroke-width: 1.5; stroke-linecap: square"/>
   </g>
   <g id="line2d_31">
    <path d="M 480.463235 188.976327 
L 483.882353 188.968107 
L 487.301471 188.966379 
L 490.720588 188.971144 
L 494.139706 188.781907 
L 497.558824 188.534963 
L 500.977941 188.234155 
L 504.397059 187.879483 
L 507.816176 187.209823 
L 511.235294 185.663757 
L 514.654412 184.060821 
L 518.073529 182.401015 
L 521.492647 180.684337 
L 524.911765 178.910789 
L 528.330882 177.080371 
L 531.75 174.140036 
L 535.169118 170.905052 
L 538.588235 164.646295 
L 542.007353 155.799774 
L 545.426471 145.892373 
L 548.845588 134.92409 
L 552.264706 122.894926 
L 555.683824 109.804882 
L 559.102941 95.653956 
L 562.522059 80.44215 
L 565.941176 64.169462 
L 569.360294 79.4519 
L 572.779412 93.843513 
L 576.198529 107.344303 
L 579.617647 119.954269 
L 583.036765 131.673412 
L 586.455882 142.501731 
L 589.875 152.439225 
L 593.294118 161.485897 
L 596.713235 167.906479 
L 600.132353 171.084963 
L 603.551471 174.079362 
L 606.970588 176.753536 
L 610.389706 179.190821 
L 613.808824 181.391217 
L 617.227941 183.354724 
L 620.647059 185.081341 
L 624.066176 186.57107 
L 627.485294 187.457006 
L 630.904412 188.162772 
L 634.323529 188.82892 
L 637.742647 189.455447 
L 641.161765 190.033239 
L 644.580882 190.181718 
L 648 190.3219 
L 651.419118 190.453784 
" clip-path="url(#p421cf2bd1c)" style="fill: none; stroke: #2ca02c; stroke-width: 1.5; stroke-linecap: square"/>
   </g>
   <g id="patch_18">
    <path d="M 483.882353 192.24 
L 483.882353 25.92 
" style="fill: none; stroke: #000000; stroke-width: 0.8; stroke-linejoin: miter; stroke-linecap: square"/>
   </g>
   <g id="patch_19">
    <path d="M 648 192.24 
L 648 25.92 
" style="fill: none; stroke: #000000; stroke-width: 0.8; stroke-linejoin: miter; stroke-linecap: square"/>
   </g>
   <g id="patch_20">
    <path d="M 483.882353 192.24 
L 648 192.24 
" style="fill: none; stroke: #000000; stroke-width: 0.8; stroke-linejoin: miter; stroke-linecap: square"/>
   </g>
   <g id="patch_21">
    <path d="M 483.882353 25.92 
L 648 25.92 
" style="fill: none; stroke: #000000; stroke-width: 0.8; stroke-linejoin: miter; stroke-linecap: square"/>
   </g>
  </g>
 </g>
 <defs>
  <clipPath id="p2a4c3b8592">
   <rect x="90" y="25.92" width="164.117647" height="166.32"/>
  </clipPath>
  <clipPath id="p9237fba9ef">
   <rect x="286.941176" y="25.92" width="164.117647" height="166.32"/>
  </clipPath>
  <clipPath id="p421cf2bd1c">
   <rect x="483.882353" y="25.92" width="164.117647" height="166.32"/>
  </clipPath>
 </defs>
</svg>
