<?xml version="1.0" encoding="utf-8" standalone="no"?>
<!DOCTYPE svg PUBLIC "-//W3C//DTD SVG 1.1//EN"
  "http://www.w3.org/Graphics/SVG/1.1/DTD/svg11.dtd">
<svg xmlns:xlink="http://www.w3.org/1999/xlink" width="460.8pt" height="345.6pt" viewBox="0 0 460.8 345.6" xmlns="http://www.w3.org/2000/svg" version="1.1">
 <metadata>
  <rdf:RDF xmlns:dc="http://purl.org/dc/elements/1.1/" xmlns:cc="http://creativecommons.org/ns#" xmlns:rdf="http://www.w3.org/1999/02/22-rdf-syntax-ns#">
   <cc:Work>
    <dc:type rdf:resource="http://purl.org/dc/dcmitype/StillImage"/>
    <dc:date>2026-01-20T14:32:55.001488</dc:date>
    <dc:format>image/svg+xml</dc:format>
    <dc:creator>
     <cc:Agent>
      <dc:title>Matplotlib v3.10.6, https://matplotlib.org/</dc:title>
     </cc:Agent>
    </dc:creator>
   </cc:Work>
  </rdf:RDF>
 </metadata>
 <defs>
  <style type="text/css">*{stroke-linejoin: round; stroke-linecap: butt}</style>
 </defs>
 <g id="figure_1">
  <g id="patch_1">
   <path d="M 0 345.6 
L 460.8 345.6 
L 460.8 0 
L 0 0 
z
" style="fill: #ffffff"/>
  </g>
  <g id="axes_1">
   <g id="patch_2">
    <path d="M 57.6 307.584 
L 414.72 307.584 
L 414.72 41.472 
L 57.6 41.472 
z
" style="fill: #ffffff"/>
   </g>
   <g id="patch_3">
    <path d="M 87.36 307.584 
L 384.96 307.584 
L 384.96 41.472 
L 87.36 41.472 
z
" clip-path="url(#p9cb5734234)" style="fill: #800080; opacity: 0.3; stroke: #800080; stroke-linejoin: miter"/>
   </g>
   <g id="patch_4">
    <path d="M -4872.64 307.584 
L -4575.04 307.584 
L -4575.04 41.472 
L -4872.64 41.472 
z
" clip-path="url(#p9cb5734234)" style="fill: #ffc0cb; opacity: 0.3; stroke: #ffc0cb; stroke-linejoin: miter"/>
   </g>
   <g id="matplotlib.axis_1">
    <g id="xtick_1">
     <g id="line2d_1">
      <path d="M 236.16 307.584 
L 236.16 41.472 
" clip-path="url(#p9cb5734234)" style="fill: none; stroke: #b0b0b0; stroke-width: 0.8; stroke-linecap: square"/>
     </g>
     <g id="line2d_2">
      <defs>
       <path id="m30647310f7" d="M 0 0 
L 0 3.5 
" style="stroke: #000000; stroke-width: 0.8"/>
      </defs>
      <g>
       <use xlink:href="#m30647310f7" x="236.16" y="307.584" style="stroke: #000000; stroke-width: 0.8"/>
      </g>
     </g>
     <g id="text_1">
      <!-- 1.000 -->
      <g transform="translate(221.845938 322.182437) scale(0.1 -0.1)">
       <defs>
        <path id="DejaVuSans-31" d="M 794 531 
L 1825 531 
L 1825 4091 
L 703 3866 
L 703 4441 
L 1819 4666 
L 2450 4666 
L 2450 531 
L 3481 531 
L 3481 0 
L 794 0 
L 794 531 
z
" transform="scale(0.015625)"/>
        <path id="DejaVuSans-2e" d="M 684 794 
L 1344 794 
L 1344 0 
L 684 0 
L 684 794 
z
" transform="scale(0.015625)"/>
        <path id="DejaVuSans-30" d="M 2034 4250 
Q 1547 4250 1301 3770 
Q 1056 3291 1056 2328 
Q 1056 1369 1301 889 
Q 1547 409 2034 409 
Q 2525 409 2770 889 
Q 3016 1369 3016 2328 
Q 3016 3291 2770 3770 
Q 2525 4250 2034 4250 
z
M 2034 4750 
Q 2819 4750 3233 4129 
Q 3647 3509 3647 2328 
Q 3647 1150 3233 529 
Q 2819 -91 2034 -91 
Q 1250 -91 836 529 
Q 422 1150 422 2328 
Q 422 3509 836 4129 
Q 1250 4750 2034 4750 
z
" transform="scale(0.015625)"/>
       </defs>
       <use xlink:href="#DejaVuSans-31"/>
       <use xlink:href="#DejaVuSans-2e" transform="translate(63.623047 0)"/>
       <use xlink:href="#DejaVuSans-30" transform="translate(95.410156 0)"/>
       <use xlink:href="#DejaVuSans-30" transform="translate(159.033203 0)"/>
       <use xlink:href="#DejaVuSans-30" transform="translate(222.65625 0)"/>
      </g>
     </g>
    </g>
   </g>
   <g id="matplotlib.axis_2">
    <g id="ytick_1">
     <g id="line2d_3">
      <path d="M 57.6 307.584 
L 414.72 307.584 
" clip-path="url(#p9cb5734234)" style="fill: none; stroke: #b0b0b0; stroke-width: 0.8; stroke-linecap: square"/>
     </g>
     <g id="line2d_4">
      <defs>
       <path id="m7451c30d76" d="M 0 0 
L -3.5 0 
" style="stroke: #000000; stroke-width: 0.8"/>
      </defs>
      <g>
       <use xlink:href="#m7451c30d76" x="57.6" y="307.584" style="stroke: #000000; stroke-width: 0.8"/>
      </g>
     </g>
     <g id="text_2">
      <!-- 0 -->
      <g transform="translate(44.2375 311.383219) scale(0.1 -0.1)">
       <use xlink:href="#DejaVuSans-30"/>
      </g>
     </g>
    </g>
   </g>
   <g id="line2d_5">
    <path d="M 50.16 260.517566 
L 57.6 257.025799 
L 65.04 253.406984 
L 72.48 249.661122 
L 79.92 245.884428 
L 87.36 242.025755 
L 94.8 238.052812 
L 102.24 233.965599 
L 109.68 229.764117 
L 117.12 225.448364 
L 124.56 221.018341 
L 132 217.672539 
L 139.44 215.534247 
L 146.88 213.399645 
L 154.32 211.268732 
L 161.76 209.141507 
L 169.2 207.017971 
L 176.64 204.898124 
L 184.08 199.19017 
L 191.52 182.087242 
L 198.96 164.3269 
L 206.4 145.909146 
L 213.84 126.833979 
L 221.28 107.101399 
L 228.72 86.711406 
L 236.16 65.664 
L 243.6 84.714912 
L 251.04 103.153777 
L 258.48 120.980593 
L 265.92 138.195362 
L 273.36 154.798084 
L 280.8 170.788757 
L 288.24 186.167383 
L 295.68 199.144995 
L 303.12 211.062636 
L 310.56 222.524401 
L 318 233.530289 
L 325.44 244.080299 
L 332.88 254.174432 
L 340.32 263.812688 
L 347.76 270.336718 
L 355.2 274.069965 
L 362.64 277.675736 
L 370.08 281.154031 
L 377.52 284.504851 
L 384.96 287.728195 
L 392.4 290.824062 
L 399.84 293.305483 
L 407.28 294.319172 
L 414.72 295.268035 
L 422.16 296.152071 
" clip-path="url(#p9cb5734234)" style="fill: none; stroke: #1f77b4; stroke-width: 1.5; stroke-linecap: square"/>
   </g>
   <g id="line2d_6">
    <path d="M 50.16 296.067505 
L 57.6 295.290794 
L 65.04 294.538184 
L 72.48 293.809677 
L 79.92 292.880145 
L 87.36 290.672043 
L 94.8 288.293628 
L 102.24 285.744901 
L 109.68 283.025861 
L 117.12 280.136509 
L 124.56 277.076844 
L 132 273.650406 
L 139.44 267.844831 
L 146.88 261.720489 
L 154.32 255.27738 
L 161.76 248.515505 
L 169.2 241.434864 
L 176.64 234.035455 
L 184.08 226.119259 
L 191.52 213.219129 
L 198.96 199.66122 
L 206.4 185.44553 
L 213.84 170.572061 
L 221.28 155.040812 
L 228.72 138.851782 
L 236.16 122.004973 
L 243.6 139.65854 
L 251.04 156.52919 
L 258.48 172.616924 
L 265.92 187.92174 
L 273.36 202.443639 
L 280.8 216.182621 
L 288.24 229.138686 
L 295.68 238.729565 
L 303.12 247.692241 
L 310.56 256.146437 
L 318 264.092152 
L 325.44 271.529386 
L 332.88 278.45814 
L 340.32 284.878412 
L 347.76 287.751032 
L 355.2 290.130737 
L 362.64 292.311128 
L 370.08 294.292207 
L 377.52 296.073972 
L 384.96 297.656425 
L 392.4 299.039565 
L 399.84 299.887676 
L 407.28 300.477392 
L 414.72 300.988122 
L 422.16 301.419866 
" clip-path="url(#p9cb5734234)" style="fill: none; stroke: #ff7f0e; stroke-width: 1.5; stroke-linecap: square"/>
   </g>
   <g id="line2d_7">
    <path d="M 50.16 302.789368 
L 57.6 302.777292 
L 65.04 302.774754 
L 72.48 302.781753 
L 79.92 302.503747 
L 87.36 302.140964 
L 94.8 301.69905 
L 102.24 301.178004 
L 109.68 300.194212 
L 117.12 297.922902 
L 124.56 295.568043 
L 132 293.129636 
L 139.44 290.607681 
L 146.88 288.002178 
L 154.32 285.313127 
L 161.76 280.993507 
L 169.2 276.241022 
L 176.64 267.046339 
L 184.08 254.049996 
L 191.52 239.495122 
L 198.96 223.381717 
L 206.4 205.709782 
L 213.84 186.479317 
L 221.28 165.690321 
L 228.72 143.342795 
L 236.16 119.436738 
L 243.6 141.888027 
L 251.04 163.030616 
L 258.48 182.864504 
L 265.92 201.38969 
L 273.36 218.606176 
L 280.8 234.51396 
L 288.24 249.113044 
L 295.68 262.403426 
L 303.12 271.835846 
L 310.56 276.505327 
L 318 280.904372 
L 325.44 284.832977 
L 332.88 288.41357 
L 340.32 291.646152 
L 347.76 294.530722 
L 355.2 297.06728 
L 362.64 299.255826 
L 370.08 300.557347 
L 377.52 301.594182 
L 384.96 302.572813 
L 392.4 303.493239 
L 399.84 304.342067 
L 407.28 304.560197 
L 414.72 304.766137 
L 422.16 304.959886 
" clip-path="url(#p9cb5734234)" style="fill: none; stroke: #2ca02c; stroke-width: 1.5; stroke-linecap: square"/>
   </g>
   <g id="patch_5">
    <path d="M 57.6 307.584 
L 57.6 41.472 
" style="fill: none; stroke: #000000; stroke-width: 0.8; stroke-linejoin: miter; stroke-linecap: square"/>
   </g>
   <g id="patch_6">
    <path d="M 414.72 307.584 
L 414.72 41.472 
" style="fill: none; stroke: #000000; stroke-width: 0.8; stroke-linejoin: miter; stroke-linecap: square"/>
   </g>
   <g id="patch_7">
    <path d="M 57.6 307.584 
L 414.72 307.584 
" style="fill: none; stroke: #000000; stroke-width: 0.8; stroke-linejoin: miter; stroke-linecap: square"/>
   </g>
   <g id="patch_8">
    <path d="M 57.6 41.472 
L 414.72 41.472 
" style="fill: none; stroke: #000000; stroke-width: 0.8; stroke-linejoin: miter; stroke-linecap: square"/>
   </g>
  </g>
 </g>
 <defs>
  <clipPath id="p9cb5734234">
   <rect x="57.6" y="41.472" width="357.12" height="266.112"/>
  </clipPath>
 </defs>
</svg>
